# xmcd CD database file
#
# Track frame offsets:
#	150
#	21652
#	39286
#	60511
#	76796
#	104448
#	129948
#	149495
#	171416
#	194579
#	217246
#	234874
#	259161
#	285078
#	300855
#	320762
#
# Disc length: 4584 seconds
#
# Revision: 2
# Processed by: cddbd v1.5.2PL0 Copyright (c) Steve Scherf et al.
# Submitted via: CDex 1.70beta2
#
DISCID=e011e610
DTITLE=Jazzkantine - IN FORMATION
DYEAR=1900
DGENRE=Jazz
TTITLE0=Es
TTITLE1=Zeitalter
TTITLE2=Kopfgeldjäger
TTITLE3=Ich würd' die Welt gern verändern
TTITLE4=Melancholie
TTITLE5=Gehirnzelle
TTITLE6=Lee
TTITLE7=Der Ton macht die Musik
TTITLE8=Das wars dann
TTITLE9=Lebe jeden Tag
TTITLE10=Pi Pa Po
TTITLE11=Soulpower
TTITLE12=Turn the lights down low
TTITLE13=Video (Remix)
TTITLE14=Gänsehaut
TTITLE15=IN FORMATION
EXTD=
EXTT0=
EXTT1=
EXTT2=
EXTT3=
EXTT4=
EXTT5=
EXTT6=
EXTT7=
EXTT8=
EXTT9=
EXTT10=
EXTT11=
EXTT12=
EXTT13=
EXTT14=
EXTT15=
PLAYORDER=
